# xmcd
#
# Track frame offsets: 
#        183
#        12685
#        28660
#        40215
#        66670
#        80335
#        95075
#        109245
#        132145
#        158055
#        194763
#        227255
#        251913
#        274010
#
# Disc length: 4048 seconds
#
# Revision: 0
# Processed by: cddbd v1.5.2PL0 Copyright (c) Steve Scherf et al.
# Submitted via: ExactAudioCopy v0.95b4
#
DISCID=c70fce0e
DTITLE=The Backyard Blues Connenction - Don't Think Too Much
DYEAR=1993
DGENRE=Blues
TTITLE0=Hartley Quits
TTITLE1=How Many More Years
TTITLE2=Reelin' And Rockin'
TTITLE3=Worried Life Blues
TTITLE4=Caledonia
TTITLE5=All Your Love
TTITLE6=Hideaway
TTITLE7=Sensitive Kind
TTITLE8=The Thrill Is Gone
TTITLE9=On The Road Again
TTITLE10=Too Many Drivers
TTITLE11=Mary Ann
TTITLE12=I Shot The Sheriff
TTITLE13=Hootchie Kootchie Man
EXTD=
EXTT0=
EXTT1=
EXTT2=
EXTT3=
EXTT4=
EXTT5=
EXTT6=
EXTT7=
EXTT8=
EXTT9=
EXTT10=
EXTT11=
EXTT12=
EXTT13=
PLAYORDER=
